<mxfile host="65bd71144e">
    <diagram id="ASGrx5X7NND_hSpCqksN" name="Page-1">
        <mxGraphModel dx="1592" dy="844" grid="1" gridSize="10" guides="1" tooltips="1" connect="1" arrows="1" fold="1" page="1" pageScale="1" pageWidth="827" pageHeight="1169" math="0" shadow="0">
            <root>
                <mxCell id="0"/>
                <mxCell id="1" parent="0"/>
                <mxCell id="2" value="level 0.0" style="swimlane;fontStyle=0;childLayout=stackLayout;horizontal=1;startSize=20;fillColor=#ffffff;horizontalStack=0;resizeParent=1;resizeParentMax=0;resizeLast=0;collapsible=0;marginBottom=0;swimlaneFillColor=#ffffff;" vertex="1" parent="1">
                    <mxGeometry x="329" y="445" width="170" height="130" as="geometry"/>
                </mxCell>
                <mxCell id="3" value="Pet Adoption System" style="text;html=1;strokeColor=none;fillColor=none;align=center;verticalAlign=middle;whiteSpace=wrap;rounded=0;" vertex="1" parent="2">
                    <mxGeometry y="20" width="170" height="110" as="geometry"/>
                </mxCell>
                <mxCell id="4" value="User" style="rounded=0;whiteSpace=wrap;html=1;" vertex="1" parent="1">
                    <mxGeometry x="10" y="480" width="120" height="60" as="geometry"/>
                </mxCell>
                <mxCell id="5" value="Admin" style="rounded=0;whiteSpace=wrap;html=1;" vertex="1" parent="1">
                    <mxGeometry x="700" y="479" width="120" height="60" as="geometry"/>
                </mxCell>
            </root>
        </mxGraphModel>
    </diagram>
</mxfile>